<?xml version="1.0" encoding="utf-8"?>
<!-- Generator: Adobe Illustrator 24.1.0, SVG Export Plug-In . SVG Version: 6.00 Build 0)  -->
<svg version="1.1" id="Layer_1" xmlns="http://www.w3.org/2000/svg" xmlns:xlink="http://www.w3.org/1999/xlink" x="0px" y="0px"
	 viewBox="0 0 562.2 151" style="enable-background:new 0 0 562.2 151;" xml:space="preserve">
<style type="text/css">
	.st0{fill-rule:evenodd;clip-rule:evenodd;fill:#FFFFFF;}
</style>
<desc>Created with Sketch.</desc>
<g id="Symbols">
	<g id="Logos_x2F_globalhack" transform="translate(0.000000, -2.000000)">
		<g id="Group-35" transform="translate(0.000000, 1.000000)">
			<g id="Group" transform="translate(0.000000, 0.465000)">
				<g id="Group-34" transform="translate(182.000000, 33.000000)">
					<path id="Fill-26" class="st0" d="M-50.6,67.3c4.2,0,7.7-1.4,10.5-4.2s4.2-6.4,4.2-10.7s-1.4-7.9-4.2-10.7s-6.3-4.2-10.5-4.2
						s-7.7,1.4-10.5,4.2c-2.7,2.8-4.1,6.4-4.1,10.7s1.4,7.9,4.1,10.7C-58.3,65.9-54.8,67.3-50.6,67.3 M-50.6,80.9
						c-8,0-14.8-2.7-20.3-8.2s-8.2-12.3-8.2-20.3s2.7-14.7,8.2-20.2s12.3-8.3,20.3-8.3s14.8,2.8,20.3,8.3S-22,44.4-22,52.4
						s-2.8,14.8-8.3,20.3C-35.8,78.2-42.6,80.9-50.6,80.9"/>
					<path id="Combined-Shape" class="st0" d="M302.1,23.9c10.5,0,19.8,5.4,24.2,13.9l-12,7c-2.2-4.4-6.8-7.2-12.3-7.2
						c-8.3,0-14.5,6.2-14.5,14.8c0,4.2,1.4,7.8,4.1,10.6c2.7,2.7,6.2,4.1,10.4,4.1c5.6,0,10.3-2.7,12.4-7.1l12.1,6.9
						c-4.8,8.5-13.9,14-24.4,14c-8.1,0-14.9-2.7-20.4-8.2c-5.4-5.5-8.1-12.2-8.1-20.3s2.7-14.8,8.1-20.3
						C287.2,26.6,294,23.9,302.1,23.9z M-142.3,2.3c14.1,0,26.5,6.9,32.9,17.6l-12.7,7.3c-3.6-6.2-11.3-10.5-20.3-10.5
						c-7.2,0-13.2,2.4-17.8,7.1c-4.6,4.6-6.9,10.6-6.9,17.8c0,7.1,2.4,13.1,7,17.7c4.8,4.6,11,6.9,18.8,6.9c11.6,0,19.3-5.4,22-14.4
						h-22.9v-13h37.9v5.8c0,10.8-3.5,19.5-10.4,26.2c-6.9,6.7-15.9,10-26.8,10c-11.7,0-21.4-3.8-29.1-11.3
						c-7.7-7.7-11.4-17-11.4-27.9c0-11,3.8-20.3,11.3-28C-162.9,6.1-153.5,2.3-142.3,2.3z M-2.6,3.8v28c4.1-5.3,9.9-7.9,17.5-7.9
						c7.2,0,13.5,2.8,18.6,8.3c5.2,5.5,7.8,12.2,7.8,20.2s-2.6,14.8-7.8,20.3c-5.1,5.5-11.3,8.2-18.6,8.2c-7.6,0-13.4-2.6-17.5-7.9
						v6.4h-13.9V3.8H-2.6z M70.2,23.9c7.6,0,13.4,2.6,17.6,7.9v-6.4h13.9v54H87.8V73c-4.2,5.3-10,7.9-17.6,7.9
						c-7.2,0-13.4-2.7-18.6-8.2c-5.1-5.5-7.7-12.3-7.7-20.3s2.6-14.7,7.7-20.2C56.8,26.7,63,23.9,70.2,23.9z M236.5,23.9
						c7.6,0,13.4,2.6,17.6,7.9v-6.4H268v54h-13.8V73c-4.2,5.3-10,7.9-17.6,7.9c-7.2,0-13.4-2.7-18.6-8.2c-5.1-5.5-7.7-12.3-7.7-20.3
						s2.6-14.7,7.7-20.2C223.2,26.7,229.3,23.9,236.5,23.9z M-84.7,0.6v78.8h-14V0.6H-84.7z M124,0.6v78.8h-13.9V0.6H124z M169,3.8
						v27.6c3.3-5.1,8.7-7.6,16.1-7.6c5.9,0,10.8,1.9,14.6,5.9c3.9,4,5.8,9.4,5.8,16.4v33.2h-13.9V48c0-7.2-4.2-11.1-10.7-11.1
						c-7.2,0-11.9,4.4-11.9,13.4v29.2h-13.9V3.8H169z M343.5,3.8v45.4l18.6-23.8h16.6L357,52.1l22.4,27.3h-16.2l-19.7-24.5v24.5
						h-13.9V3.8H343.5z M12.3,37.2c-4.3,0-7.9,1.4-10.7,4.3c-2.8,2.8-4.2,6.5-4.2,10.9s1.4,8.1,4.2,11c2.8,2.8,6.4,4.2,10.7,4.2
						s7.9-1.4,10.7-4.2c2.9-2.9,4.3-6.6,4.3-11s-1.4-8.1-4.3-10.9C20.2,38.6,16.7,37.2,12.3,37.2z M72.8,37.2
						c-4.3,0-7.9,1.4-10.7,4.3c-2.8,2.8-4.2,6.5-4.2,10.9s1.4,8.1,4.2,11c2.8,2.8,6.4,4.2,10.7,4.2c4.3,0,7.9-1.4,10.7-4.2
						c2.9-2.9,4.3-6.6,4.3-11s-1.4-8.1-4.3-10.9C80.7,38.6,77.1,37.2,72.8,37.2z M239.1,37.2c-4.3,0-7.9,1.4-10.7,4.3
						c-2.8,2.8-4.2,6.5-4.2,10.9s1.4,8.1,4.2,11c2.8,2.8,6.4,4.2,10.7,4.2c4.3,0,7.9-1.4,10.7-4.2c2.9-2.9,4.3-6.6,4.3-11
						s-1.4-8.1-4.3-10.9C247,38.6,243.5,37.2,239.1,37.2z"/>
				</g>
			</g>
		</g>
	</g>
</g>
</svg>
