<svg width="1180" height="385" viewBox="0 0 1180 385" fill="none" xmlns="http://www.w3.org/2000/svg">
<g clip-path="url(#clip0)">
<path d="M103.696 246.852C93.8177 241.572 75.2276 231.586 68.6795 228.04L86.0747 194.486C84.7784 193.97 83.4859 193.427 82.2169 192.857H82.213H82.2091C82.2052 192.857 82.2052 192.857 82.2052 192.857L82.2013 192.853C82.1935 192.849 82.1896 192.849 82.1857 192.845C82.1779 192.842 82.174 192.842 82.174 192.838H82.1701C82.1662 192.838 82.1662 192.838 82.1662 192.838C82.1623 192.834 82.1545 192.83 82.1506 192.83C82.1467 192.826 82.1427 192.826 82.1388 192.822C82.1349 192.822 82.131 192.822 82.1232 192.818C80.8347 192.236 79.5618 191.631 78.3045 190.994C78.281 190.983 78.2615 190.971 78.2381 190.959C78.2342 190.959 78.2342 190.959 78.2342 190.959C78.2264 190.955 78.2225 190.951 78.2186 190.951L78.2068 190.947C78.2029 190.944 78.1951 190.94 78.1912 190.936C78.1873 190.932 78.1834 190.932 78.1834 190.928H78.1795C78.1756 190.928 78.1756 190.928 78.1717 190.928V190.924C78.1639 190.924 78.1639 190.92 78.1561 190.92C76.93 190.295 75.7118 189.647 74.5169 188.971C74.513 188.967 74.513 188.967 74.5091 188.967C74.5013 188.964 74.4974 188.96 74.4935 188.956C74.4896 188.956 74.4896 188.952 74.4857 188.952C74.4818 188.952 74.4818 188.948 74.4818 188.948C74.474 188.948 74.4701 188.94 74.4623 188.94C74.4584 188.936 74.4584 188.936 74.4545 188.936C74.4428 188.928 74.4349 188.921 74.4232 188.917C74.4232 188.917 74.4232 188.913 74.4193 188.913C74.4154 188.909 74.4076 188.909 74.4037 188.901C73.2909 188.272 72.1859 187.628 71.1004 186.952L70.7411 186.823L52.3502 222.194C45.0797 217.894 24.4787 205.753 16.0251 201.297C14.5414 200.512 13.0264 200.113 11.5152 200.113C8.11039 200.113 5.26389 202.128 3.90507 205.491C2.16749 209.81 3.94411 213.895 8.66094 216.414C17.3918 221.089 37.8405 231.895 44.9548 235.656C43.1469 239.046 41.1516 242.783 39.1017 246.618C34.9471 254.401 30.5739 262.575 27.1456 269.074C25.6501 271.909 25.4744 274.967 26.6653 277.458C27.786 279.802 29.9335 281.387 32.7097 281.93C33.2642 282.043 33.8187 282.094 34.3575 282.094C36.1615 282.094 39.539 281.43 41.9247 276.97C46.6025 268.218 56.9304 248.813 60.5773 241.963C64.4585 243.998 72.3225 248.157 78.9722 251.668C86.0552 255.413 92.8962 259.033 95.7622 260.529C98.1792 261.798 100.026 262.364 101.744 262.364C103.857 262.364 105.661 261.458 106.957 259.744C108.538 257.647 109.128 255.206 108.612 252.874C108.066 250.394 106.32 248.25 103.696 246.852Z" fill="#FA627D"/>
<path d="M11.5152 202.359C9.02017 202.359 7.00536 203.808 5.99015 206.331C4.22915 210.708 7.57154 213.286 9.7191 214.434C15.6854 217.625 27.8953 224.1 46.0012 233.664L47.9965 234.722L46.9383 236.71C45.314 239.76 43.5335 243.088 41.7022 246.516L40.9369 247.954C36.8253 255.643 32.5184 263.7 29.1331 270.12C27.9695 272.327 27.8094 274.647 28.6918 276.486C29.5079 278.197 31.0464 279.321 33.1393 279.727C33.5571 279.809 33.9631 279.852 34.3575 279.852C35.9467 279.852 38.2036 279.169 39.9412 275.912C44.6229 267.156 54.9468 247.758 58.5937 240.908L59.6402 238.936L61.6198 239.975C65.2395 241.869 72.3225 245.614 78.652 248.961L80.0225 249.68C87.1173 253.433 93.9426 257.041 96.8008 258.537C98.882 259.631 100.405 260.115 101.744 260.115C103.146 260.115 104.298 259.533 105.165 258.389C106.344 256.827 106.793 255.038 106.422 253.363C106.016 251.531 104.673 249.922 102.638 248.832C92.6736 243.509 74.0132 233.488 67.6096 230.016L65.6729 228.966L82.951 195.63C82.4239 195.407 81.9046 195.181 81.393 194.95L81.1783 194.857C79.8351 194.251 78.527 193.627 77.2892 192.998L77.0433 192.873C75.7977 192.236 74.6653 191.631 73.5681 191.014L73.205 190.807C72.6583 190.494 72.1468 190.202 71.6626 189.916L53.2483 225.334L51.21 224.127C43.0532 219.3 23.1902 207.612 14.9787 203.28C13.8229 202.671 12.6554 202.359 11.5152 202.359ZM34.3575 284.344C33.6742 284.344 32.9714 284.273 32.2724 284.137C28.7856 283.453 26.0718 281.422 24.6388 278.423C23.1394 275.287 23.3307 271.495 25.1581 268.027C28.5513 261.599 32.8581 253.534 36.9736 245.837L37.7428 244.4C39.1798 241.705 40.5893 239.073 41.913 236.585C24.8887 227.591 13.3504 221.475 7.60277 218.394C1.85902 215.328 -0.354924 210.06 1.82388 204.651C3.53412 200.402 7.16155 197.864 11.5152 197.864C13.3973 197.864 15.2676 198.352 17.0794 199.313C24.7481 203.355 42.3699 213.692 51.4521 219.054L69.6439 184.062L72.2874 185.046C73.2011 185.613 74.1929 186.202 75.3994 186.89L75.7977 187.112C76.7973 187.675 77.8749 188.257 79.0385 188.846L79.3626 189.014C80.5496 189.612 81.7484 190.182 82.9822 190.74L83.2204 190.85C84.3567 191.358 85.6179 191.889 86.8986 192.392L89.2102 193.31L71.69 227.115C79.3353 231.243 95.6646 240.014 104.759 244.872C107.968 246.583 110.116 249.262 110.807 252.394C111.463 255.378 110.733 258.467 108.749 261.095C107.035 263.364 104.548 264.614 101.744 264.614C99.6395 264.614 97.4724 263.965 94.7157 262.513C91.8614 261.025 85.0244 257.408 77.9452 253.667L76.5552 252.929C71.237 250.121 65.3878 247.032 61.5105 244.993C57.2232 253.046 48.1917 270.011 43.9044 278.029C40.8627 283.73 36.2161 284.344 34.3575 284.344Z" fill="#FA627D"/>
<path fill-rule="evenodd" clip-rule="evenodd" d="M76.0163 54.4091C74.9074 51.3278 73.8141 48.2895 72.6778 45.1418C82.3224 46.8718 91.8771 48.5863 101.529 50.3163C95.2194 57.795 88.9603 65.2113 82.6269 72.7173C81.5414 69.7102 80.4794 66.7851 79.4056 63.8093C68.7966 70.4093 60.6203 79.165 55.0405 90.2874C49.4724 101.394 47.3327 113.177 48.3635 125.599C45.1148 125.888 41.9091 126.174 38.6019 126.47C37.3797 111.857 40.0271 98.0356 46.7821 85.0465C53.5489 72.0378 63.3379 61.88 76.0163 54.4091Z" fill="#FA627D"/>
<path d="M76.9691 48.762L79.4485 55.6471L77.4415 56.8304C65.1809 64.0514 55.7043 73.9788 49.2733 86.3391C43.2953 97.8404 40.5854 110.302 41.2141 123.42L45.3882 123.045C44.8376 111.021 47.2351 99.5899 52.5337 89.0299C58.2462 77.6342 66.7896 68.3473 77.9257 61.4231L80.8698 59.5915L83.6148 67.1952L96.2464 52.2221L76.9691 48.762ZM36.0365 129.52L35.8022 126.705C34.5293 111.482 37.3875 97.028 44.2949 83.7499C50.8625 71.1201 60.3782 60.8529 72.5997 53.1985L68.3866 41.5215L106.808 48.4105L81.639 78.2434L77.9765 68.1051C69.148 74.2365 62.2875 82.1058 57.5512 91.545C52.315 101.984 50.1675 113.36 51.1592 125.365L51.3896 128.146" fill="#FA627D"/>
<path fill-rule="evenodd" clip-rule="evenodd" d="M48.6603 162.462C45.599 163.594 42.569 164.711 39.4219 165.871C41.0735 156.221 42.7135 146.641 44.3691 136.98C51.8973 143.24 59.3747 149.445 66.9146 155.71C63.9197 156.819 61.0107 157.897 58.0354 158.998C64.646 169.476 73.408 177.533 84.4738 183.031C95.5201 188.522 107.222 190.666 119.546 189.608C119.838 192.865 120.123 196.071 120.416 199.375C105.895 200.59 92.1582 197.981 79.2338 191.315C66.3094 184.652 56.169 174.99 48.6603 162.462Z" fill="#FA627D"/>
<path d="M49.8747 159.021L51.0695 161.021C58.3282 173.135 68.2383 182.488 80.5184 188.819C90.8619 194.15 101.986 196.852 113.583 196.852C114.833 196.852 116.094 196.825 117.367 196.762L116.992 192.592C115.824 192.646 114.657 192.674 113.505 192.674C102.927 192.674 92.74 190.276 83.2244 185.546C71.854 179.895 62.5843 171.468 55.6614 160.498L53.8145 157.569L61.3817 154.765L46.3175 142.248L43.0103 161.556L49.8747 159.021ZM113.583 202.472C101.08 202.472 89.0931 199.555 77.9453 193.81C65.4035 187.343 55.1616 177.954 47.4811 165.891L35.8374 170.187L42.4246 131.711L72.4475 156.655L62.3422 160.396C68.4608 169.081 76.3131 175.842 85.7233 180.516C96.1683 185.71 107.461 187.823 119.303 186.808L122.091 186.57L123.466 201.933L120.651 202.171C118.28 202.371 115.906 202.472 113.583 202.472Z" fill="#FA627D"/>
<path fill-rule="evenodd" clip-rule="evenodd" d="M149.65 168.808C150.755 171.803 151.829 174.693 152.942 177.681C163.426 171.054 171.458 162.306 176.956 151.261C182.45 140.221 184.566 128.521 183.543 116.176C186.792 115.883 190.009 115.598 193.297 115.301C193.371 116.363 193.469 117.383 193.519 118.406C193.761 123.334 193.531 128.239 192.785 133.113C190.591 147.508 184.73 160.224 175.269 171.284C171.845 175.291 168.03 178.896 163.824 182.059C161.587 183.742 159.197 185.218 156.855 186.761C156.495 186.999 156.421 187.167 156.573 187.569C157.655 190.44 158.709 193.318 159.814 196.306C150.162 194.654 140.596 193.017 130.928 191.361C137.175 183.836 143.38 176.361 149.65 168.808Z" fill="#FA627D"/>
<path d="M136.191 189.413L155.496 192.717C154.976 191.322 154.469 189.94 153.946 188.561C153.329 186.937 153.836 185.382 155.308 184.414C155.871 184.047 156.433 183.684 156.991 183.316C158.803 182.149 160.505 181.044 162.134 179.817C166.124 176.814 169.826 173.33 173.133 169.46C182.235 158.822 187.908 146.45 190.013 132.692C190.712 128.095 190.954 123.334 190.712 118.546C190.712 118.48 190.708 118.418 190.708 118.355L186.518 118.73C187.061 130.657 184.695 142.01 179.466 152.511C173.824 163.856 165.402 173.123 154.441 180.055L151.517 181.903L148.709 174.342L136.191 189.413ZM164.137 199.891L125.66 193.306L150.591 163.278L154.336 173.373C163.012 167.25 169.771 159.404 174.445 150.012C179.611 139.624 181.731 128.318 180.743 116.406L180.517 113.63L195.889 112.251L196.174 116.106C196.233 116.836 196.288 117.554 196.319 118.273C196.577 123.436 196.319 128.571 195.561 133.539C193.301 148.352 187.194 161.665 177.405 173.108C173.824 177.29 169.826 181.059 165.511 184.304C163.723 185.648 161.856 186.859 160.049 188.03C159.967 188.085 159.885 188.136 159.803 188.19C160.419 189.842 161.036 191.506 161.657 193.197" fill="#FA627D"/>
<path fill-rule="evenodd" clip-rule="evenodd" d="M192.481 77.0171C190.825 86.6906 189.185 96.2626 187.537 105.909C180.005 99.6563 172.532 93.4508 164.988 87.1866C167.979 86.0775 170.884 84.9996 173.867 83.8944C167.257 73.4437 158.522 65.3987 147.479 59.8961C136.464 54.4013 124.793 52.2807 112.494 53.2727C112.209 50.0391 111.927 46.8328 111.642 43.5953C112.177 43.525 112.685 43.4234 113.197 43.3922C122.458 42.8025 131.533 43.8139 140.408 46.5672C151.107 49.8867 160.599 55.3191 168.9 62.8368C174.414 67.8279 179.076 73.5179 182.895 79.9032C183.141 80.3171 183.34 80.4147 183.824 80.2312C186.655 79.1494 189.505 78.1145 192.481 77.0171Z" fill="#FA627D"/>
<path d="M170.521 88.1317L185.589 100.644L188.896 81.3286C187.526 81.8363 186.171 82.3401 184.824 82.8556C184.339 83.0391 183.886 83.129 183.434 83.129C182.731 83.129 181.411 82.8946 180.486 81.3442C176.819 75.2167 172.29 69.6907 167.018 64.9184C159.037 57.6935 149.807 52.4213 139.576 49.2502C131.603 46.7742 123.274 45.7237 114.68 46.122L115.051 50.3007C116.137 50.2538 117.218 50.2304 118.288 50.2304C128.971 50.2304 139.213 52.6361 148.737 57.3811C160.06 63.0321 169.314 71.4481 176.241 82.3948L178.092 85.3238L170.521 88.1317ZM189.486 111.173L159.459 86.2415L169.56 82.4963C163.442 73.8304 155.605 67.0819 146.23 62.4072C135.871 57.2405 124.61 55.116 112.72 56.0728L109.94 56.2954L108.609 41.1739L111.717 40.7483C112.158 40.6819 112.587 40.6155 113.021 40.5881C122.708 39.975 132.208 41.0841 141.24 43.8882C152.255 47.3053 162.196 52.9798 170.782 60.7553C176.046 65.5198 180.622 70.9795 184.41 77.0054C185.972 76.4235 187.541 75.8416 189.142 75.2558L196.065 72.6978" fill="#FA627D"/>
<path fill-rule="evenodd" clip-rule="evenodd" d="M109.944 173.194C104.887 169.558 101.436 163.762 98.7571 156.92C98.7102 156.967 98.6595 157.014 98.6165 157.057C98.6985 157.506 98.7415 158.006 98.8859 158.393C99.1202 159.037 99.0109 159.72 98.6556 160.65C97.7731 162.95 97.2186 165.258 96.8008 167.535C96.0355 171.714 95.7036 175.701 95.8013 179.501C95.8013 179.556 95.7661 179.634 95.6841 179.911C95.321 178.915 94.9657 178.06 94.6845 177.13C93.5365 173.354 93.3296 168.906 93.5912 164.137C93.8606 159.193 94.5752 154.085 95.7075 148.848C96.547 144.954 97.3904 141.041 98.4603 137.12C99.7411 132.403 101.217 127.669 102.689 122.948C103.583 120.073 104.637 117.207 105.625 114.336C105.653 114.251 105.703 114.165 105.84 113.887C105.551 115.309 105.278 116.539 105.051 117.761C104.235 122.174 103.716 126.447 104.38 130.13C105.551 136.624 111.439 136.452 116.457 135.574C118.932 135.144 121.428 134.648 123.915 134.168C124.571 134.043 125.235 133.883 125.898 133.828C125.758 133.906 125.621 133.996 125.484 134.062C121.49 135.964 117.503 138.233 113.536 141.385C111.904 142.681 110.323 144.173 108.804 145.927C106.059 149.098 104.813 152.507 104.852 156.213C104.883 159.334 105.469 161.993 106.238 164.504C107.172 167.543 108.386 170.273 109.764 172.815C109.823 172.936 109.885 173.065 109.944 173.194Z" fill="#FA627D"/>
<path fill-rule="evenodd" clip-rule="evenodd" d="M105.524 79.9852C105.352 80.157 105.161 80.3171 105.02 80.5085C102.732 83.4843 101.026 86.7843 99.8309 90.3187C98.5501 94.1068 98.0035 98.0278 98.1518 102.054C98.1831 102.87 98.062 103.64 98.3002 104.483C98.472 105.1 98.2026 105.854 98.6165 106.495C98.6946 106.62 98.6634 106.815 98.5462 107.049C98.1597 106.456 97.7419 105.878 97.3904 105.268C95.2038 101.464 93.6615 97.4381 93.1734 93.0524C92.8142 89.8149 92.9118 86.593 94.0207 83.5C94.6728 81.6801 95.3678 79.8289 96.3908 78.2082C98.1948 75.3456 100.655 73.0883 103.634 71.4168C107.757 69.1088 112.22 68.1598 116.894 68.0583C118.128 68.0348 119.362 68.1051 120.596 68.1364C121.474 68.1598 121.56 68.2457 121.592 69.1557C121.752 73.7757 121.533 78.3722 120.455 82.8829C120.045 84.5974 119.545 86.3001 118.948 87.9598C118.366 89.5727 117.726 91.1896 116.894 92.6853C114.879 96.329 112.248 99.4611 108.835 101.91C106.926 103.273 104.907 104.397 102.709 105.21C102.139 105.417 101.885 105.339 101.729 104.722C100.885 101.449 100.577 98.1254 100.834 94.7629C101.037 92.1503 101.428 89.5493 102.463 87.1163C103.415 84.8903 104.477 82.715 105.493 80.5124C105.555 80.3757 105.606 80.2312 105.664 80.0906C105.621 80.0554 105.571 80.0203 105.524 79.9852Z" fill="#FA627D"/>
<path fill-rule="evenodd" clip-rule="evenodd" d="M149.627 110.029C151.728 105.46 152.267 100.715 151.228 95.8213C150.943 94.4896 150.486 93.193 149.971 91.9042C151.427 97.7154 150.849 103.214 147.745 108.6C146.644 107.631 145.57 106.834 144.676 105.878C140.869 101.828 139.42 96.9109 139.44 91.4473C139.459 88.0653 140.154 84.8043 140.982 81.559C141.115 81.0396 141.38 80.8443 141.911 80.9459C145.972 81.7347 149.729 83.1875 152.68 86.1868C155.695 89.2525 157.061 92.9782 156.683 97.3014C156.405 100.508 155.297 103.402 153.395 105.971C152.306 107.444 151.08 108.807 149.912 110.216C149.818 110.154 149.725 110.091 149.627 110.029Z" fill="#FA627D"/>
<path fill-rule="evenodd" clip-rule="evenodd" d="M107.824 110.994C113.505 114.2 119.397 114.418 125.465 112.345C119.799 113.493 114.516 112.665 109.53 109.295C110.241 108.529 110.858 107.76 111.58 107.112C115.984 103.124 121.228 101.753 127.046 102.207C130.162 102.453 133.161 103.202 136.078 104.304C136.66 104.522 136.816 104.804 136.566 105.401C135.949 106.901 135.535 108.506 134.77 109.92C132.669 113.774 129.823 116.859 125.461 118.211C122.661 119.078 119.889 118.972 117.097 118.121C113.267 116.949 110.452 114.43 107.968 111.443C107.902 111.372 107.867 111.275 107.832 111.185C107.816 111.15 107.828 111.103 107.824 110.994Z" fill="#FA627D"/>
<path fill-rule="evenodd" clip-rule="evenodd" d="M139.865 137.819C143.832 137.507 147.257 135.831 150.506 133.652C147.323 134.484 144.145 135.32 140.717 134.949C141.072 133.387 141.759 132.059 142.571 130.797C145.269 126.58 149.272 124.24 154.059 123.342C156.402 122.905 158.779 122.335 161.224 122.592C161.665 122.635 162.001 122.639 161.911 123.217C161.411 126.377 160.622 129.45 159.158 132.313C157.663 135.238 155.707 137.765 152.692 139.284C149.853 140.713 146.909 140.811 143.946 139.807C142.532 139.327 141.173 138.678 139.787 138.108C139.815 138.011 139.842 137.917 139.865 137.819Z" fill="#FA627D"/>
<path fill-rule="evenodd" clip-rule="evenodd" d="M80.7448 100.129C80.7683 98.5433 80.7448 96.946 80.8347 95.3605C80.9284 93.7944 81.1236 92.2323 81.8538 90.6311C82.6035 91.1544 83.3336 91.584 83.9623 92.1229C87.7928 95.3956 89.4913 99.672 89.6787 104.612C89.7802 107.412 89.4327 110.169 88.6401 112.868C88.4644 113.47 88.2496 113.563 87.6756 113.305C84.7588 111.997 81.9397 110.537 79.5695 108.346C76.8636 105.846 74.8644 102.949 74.6419 99.1213C74.4935 96.5946 75.2978 94.3256 76.6449 92.244C77.3634 91.1349 78.2263 90.1234 79.1478 89.108C78.648 92.9704 79.4055 96.5946 80.7448 100.129Z" fill="#FA627D"/>
<path fill-rule="evenodd" clip-rule="evenodd" d="M78.2576 125.947C81.4438 130.102 85.657 132.481 90.9556 133.106C90.7486 133.18 90.5495 133.258 90.3425 133.32C87.4726 134.152 84.5441 134.422 81.6547 133.648C77.0589 132.41 73.6736 129.247 72.916 124.115C72.51 121.374 72.9004 118.707 73.8493 116.113C73.9664 115.797 74.0601 115.551 74.5131 115.672C77.1292 116.352 79.7336 117.082 82.0842 118.441C86.3481 120.901 89.503 124.268 90.5222 129.274C90.6003 129.653 90.651 130.04 90.7018 130.423C90.7252 130.59 90.7018 130.758 90.7018 131.059C85.821 131.071 81.764 129.231 78.2576 125.947Z" fill="#FA627D"/>
<path fill-rule="evenodd" clip-rule="evenodd" d="M137.921 112.521C139.932 116.055 141.337 119.734 141.072 123.842C140.896 126.72 139.963 129.337 137.85 131.539C135.262 128.782 134.122 125.521 133.985 121.843C133.512 125.896 134.52 129.552 137.019 132.938C133.415 131.184 130.111 127.404 130.076 122.885C130.041 118.105 133.45 114.336 137.921 112.521Z" fill="#FA627D"/>
<path fill-rule="evenodd" clip-rule="evenodd" d="M128.038 79.825C128.077 83.703 129.518 86.9835 132.392 89.7212C127.808 88.4714 123.716 84.3669 124.219 79.1143C124.403 77.1811 125.102 75.4042 126.347 73.9358C127.359 72.7447 128.554 71.7059 129.717 70.6553C130.342 70.093 130.506 70.1789 131.029 70.8701C132.763 73.1469 134.161 75.5917 134.805 78.4074C135.543 81.6371 135.152 84.7223 133.536 87.6318C133.169 88.2879 132.993 88.3426 132.435 87.8466C130.268 85.9252 128.823 83.5703 128.222 80.7194C128.163 80.4226 128.097 80.1258 128.038 79.825Z" fill="#FA627D"/>
<path fill-rule="evenodd" clip-rule="evenodd" d="M118.421 148.832C120.92 151.855 124.122 153.55 127.964 154.065C126.441 153.323 124.871 152.667 123.419 151.812C121.923 150.929 120.791 149.625 119.85 148.012C120.338 147.782 120.752 147.555 121.197 147.387C123.973 146.349 126.777 146.349 129.596 147.255C132.583 148.211 135.02 150.02 137.23 152.167C137.351 152.289 137.331 152.745 137.206 152.89C134.793 155.631 131.978 157.69 128.14 157.713C125.219 157.729 122.841 156.448 120.967 154.261C119.639 152.706 118.815 150.894 118.421 148.832Z" fill="#FA627D"/>
<path fill-rule="evenodd" clip-rule="evenodd" d="M159.455 113.329C161.489 110.134 162.134 106.682 161.318 102.945C163.043 104.007 164.348 108.744 163.906 111.482C163.328 115.051 160.056 117.687 158.03 118.148C157.956 117.824 157.917 117.484 157.788 117.183C157.725 117.035 157.44 116.848 157.343 116.891C157.171 116.957 156.983 117.183 156.96 117.359C156.913 117.765 157.128 118.355 156.925 118.55C156.679 118.792 156.113 118.703 155.687 118.773C154.738 118.937 153.789 119.105 152.673 119.3C152.614 118.066 152.493 116.965 152.524 115.867C152.591 113.216 153.118 110.669 154.465 108.334C155.617 106.327 157.202 104.788 159.268 103.718C159.795 103.445 159.974 103.577 160.131 104.101C160.993 106.994 160.732 109.798 159.553 112.552C159.455 112.786 159.369 113.024 159.275 113.263C159.338 113.286 159.396 113.305 159.455 113.329Z" fill="#FA627D"/>
<path fill-rule="evenodd" clip-rule="evenodd" d="M117.726 128.599C116.793 130.403 115.375 131.657 113.45 132.203C109.686 133.277 106.965 130.251 107.746 126.755C108.363 124.002 110.127 122.124 112.997 121.534C116.379 120.839 119.112 123.815 118.187 127.142C118.05 127.634 117.878 128.111 117.726 128.599Z" fill="#FA627D"/>
<path fill-rule="evenodd" clip-rule="evenodd" d="M107.285 146.411C107.777 146.118 108.253 145.79 108.765 145.532C109.96 144.919 111.24 144.525 112.548 144.247C113.97 143.951 115.328 143.513 116.629 142.845C117.859 142.213 119.003 141.494 119.94 140.471C121.135 139.163 121.748 137.651 121.525 135.859C121.47 135.402 121.342 134.961 121.185 134.511C121.334 136.573 120.49 138.151 118.948 139.401C119.237 138.944 119.577 138.503 119.807 138.007C120.35 136.82 120.471 135.574 120.147 134.293C119.741 132.653 118.772 131.368 117.507 130.298C116.668 129.587 115.742 128.978 114.895 128.275C114.106 127.622 113.31 126.962 112.63 126.209C111.65 125.127 111.111 123.869 111.67 122.366C111.256 122.92 111.104 123.561 111.096 124.229C111.084 125.642 111.654 126.857 112.447 127.97C113.075 128.853 113.786 129.669 114.395 130.559C115.34 131.946 116.016 133.457 116.254 135.132C116.539 137.151 115.992 138.909 114.602 140.397C113.954 141.088 113.239 141.709 112.4 142.154C111.771 142.486 111.115 142.767 110.463 143.045C109.198 143.58 107.953 144.15 106.848 144.986C106.094 145.556 105.43 146.216 105.215 147.192C105.044 147.965 105.227 148.672 105.672 149.317C105.836 149.555 106.012 149.789 106.219 150.016C106.356 148.891 106.82 147.993 107.789 147.415C108.706 146.872 109.729 146.727 110.78 146.673C109.655 146.196 108.511 146.099 107.328 146.509C107.312 146.473 107.3 146.446 107.285 146.411Z" fill="#FA627D"/>
<path fill-rule="evenodd" clip-rule="evenodd" d="M114.665 120.874C113.895 120.655 113.001 120.999 112.494 121.671C111.408 123.112 111.814 125.201 113.38 126.279C114.138 126.802 115.02 127.017 115.859 127.345C116.754 127.704 117.667 128.064 118.499 128.548C120.127 129.497 121.189 130.794 120.69 132.875C121.502 132.223 122.138 129.735 121.81 128.396C121.303 126.326 119.706 125.342 117.902 124.572C119.514 125.646 120.912 126.869 121.06 128.989C120.986 128.814 120.916 128.638 120.826 128.47C120.303 127.501 119.448 126.888 118.483 126.459C117.46 126.01 116.391 125.658 115.336 125.271C114.614 125.006 113.958 124.623 113.474 124.026C113.06 123.506 112.908 122.565 113.419 121.69C113.689 121.229 114.098 120.983 114.665 120.874Z" fill="#FA627D"/>
<path fill-rule="evenodd" clip-rule="evenodd" d="M102.365 147.137C102.373 147.118 102.388 147.094 102.385 147.079C101.963 145.821 102.482 144.888 103.427 144.115C104.466 143.275 105.676 142.756 106.937 142.373C108.035 142.033 109.163 141.814 110.256 141.479C111.568 141.08 112.829 140.561 113.86 139.616C115.18 138.413 115.735 136.921 115.516 135.168C115.434 134.504 115.239 133.851 115.032 133.195C114.868 134.265 114.567 135.257 113.989 136.163C113.411 137.073 112.642 137.78 111.767 138.393C113.095 137.89 114.13 137.054 114.739 135.734C114.766 135.746 114.797 135.761 114.821 135.777C114.594 136.257 114.403 136.761 114.13 137.214C113.193 138.745 111.771 139.655 110.112 140.202C108.991 140.569 107.828 140.803 106.699 141.147C105.34 141.557 104.028 142.088 102.916 143.006C102.771 143.123 102.634 143.252 102.474 143.361C102.748 142.689 103.22 142.154 103.81 141.631C101.607 142.396 100.784 145.681 102.365 147.137Z" fill="#FA627D"/>
<path fill-rule="evenodd" clip-rule="evenodd" d="M115.871 143.763C115.489 145.47 114.341 146.466 112.872 147.13C112.138 147.462 111.334 147.645 110.561 147.891C110.475 147.922 110.381 147.938 110.291 147.997C111.467 148.086 112.611 147.961 113.767 147.645C113.685 147.696 113.603 147.766 113.513 147.805C112.708 148.122 111.904 148.438 111.092 148.746C110.483 148.981 109.854 149.176 109.245 149.414C108.663 149.641 108.265 150.109 107.874 150.558C107.507 150.988 107.394 151.539 107.382 152.089C107.351 153.253 107.843 154.241 108.515 155.167C108.511 155.12 108.511 155.077 108.499 155.03C108.117 153.71 108.546 152.648 109.62 151.863C110.237 151.41 110.924 151.054 111.599 150.683C113.13 149.836 114.501 148.805 115.367 147.235C115.91 146.263 116.125 145.22 115.945 144.107C115.926 143.99 115.895 143.88 115.871 143.763Z" fill="#FA627D"/>
<path fill-rule="evenodd" clip-rule="evenodd" d="M116.492 143.673C116.836 146.458 115.418 148.434 113.474 150.238C113.618 150.195 113.712 150.18 113.798 150.145C115.207 149.609 116.492 148.891 117.414 147.661C118.515 146.181 118.706 144.529 118.241 142.775C118.234 142.732 118.206 142.697 118.144 142.576C118.093 144.251 117.597 145.696 116.676 146.997C116.98 145.868 117 144.759 116.492 143.673Z" fill="#FA627D"/>
<path fill-rule="evenodd" clip-rule="evenodd" d="M107.687 149.918C106.352 150.543 105.301 151.609 105.852 153.253C106.078 153.94 106.445 154.589 106.762 155.249C107.074 155.901 107.429 156.534 107.714 157.198C107.956 157.756 107.968 158.338 107.675 158.904C108.265 158.459 108.452 157.842 108.425 157.139C108.39 156.405 108.046 155.78 107.726 155.136C107.386 154.452 107.062 153.753 106.808 153.034C106.512 152.199 106.644 151.363 107.078 150.594C107.215 150.351 107.453 150.168 107.687 149.918Z" fill="#FA627D"/>
<path fill-rule="evenodd" clip-rule="evenodd" d="M104.965 150.519C103.447 148.106 103.931 145.892 105.664 143.794C104.493 144.482 103.376 145.216 103.013 146.63C102.794 147.462 102.97 148.247 103.505 148.93C103.946 149.496 104.423 150.047 104.883 150.601C104.911 150.574 104.942 150.547 104.965 150.519Z" fill="#FA627D"/>
<path fill-rule="evenodd" clip-rule="evenodd" d="M109.807 121.378C108.281 122.491 107.886 124.982 108.628 126.49C109.104 125.849 109.6 125.189 110.12 124.49C109.389 123.588 109.311 122.526 109.807 121.378Z" fill="#FA627D"/>
<path fill-rule="evenodd" clip-rule="evenodd" d="M114.196 123.061C114.727 121.237 116.555 120.823 117.597 122.116C117.425 120.292 115.481 119.199 113.86 120.112C115.059 119.933 116.016 120.218 116.785 121.073C115.996 120.804 115.289 120.905 114.684 121.487C114.262 121.889 114.098 122.417 114.196 123.061Z" fill="#FA627D"/>
<path fill-rule="evenodd" clip-rule="evenodd" d="M107.691 124.123C107.004 125.99 107.273 127.818 108.226 129.595C108.226 129.52 108.226 129.438 108.222 129.364C108.206 129.13 108.159 128.896 108.179 128.665C108.222 128.212 108.386 127.747 108.339 127.314C108.288 126.884 107.968 126.494 107.89 126.064C107.769 125.416 107.749 124.748 107.691 124.123Z" fill="#FA627D"/>
<path fill-rule="evenodd" clip-rule="evenodd" d="M110.576 124.295C110.327 123.366 110.416 122.518 110.811 121.714C111.201 120.909 111.775 120.3 112.763 120.12C111.885 119.909 110.955 120.448 110.385 121.444C109.835 122.421 109.893 123.588 110.576 124.295Z" fill="#FA627D"/>
<path fill-rule="evenodd" clip-rule="evenodd" d="M104.571 147.407C105.122 144.818 107.133 143.732 109.374 142.799C106.43 143.291 104.622 145.177 104.571 147.407Z" fill="#FA627D"/>
<path d="M368.773 175.9H259.621C259.813 188.572 262.501 198.652 267.685 206.14C275.941 218.236 287.845 224.284 303.397 224.284C322.597 224.284 335.557 215.164 342.277 196.924H365.893C362.821 212.476 355.717 224.572 344.581 233.212C333.445 241.852 319.429 246.172 302.533 246.172C280.069 246.172 262.885 238.492 250.981 223.132C240.421 209.692 235.141 191.932 235.141 169.852C235.141 144.316 242.053 124.444 255.877 110.236C267.973 97.948 283.621 91.804 302.821 91.804C316.837 91.804 329.125 95.164 339.685 101.884C350.437 108.604 358.117 117.82 362.725 129.532C366.757 139.516 368.773 154.684 368.773 175.036V175.9ZM343.429 156.604C343.429 143.74 339.589 133.372 331.909 125.5C324.421 117.436 314.725 113.404 302.821 113.404C290.725 113.404 280.837 117.34 273.157 125.212C265.669 132.892 261.445 143.356 260.485 156.604H343.429ZM424.04 36.796V243.004H400.424V36.796H424.04ZM580.071 243.004H556.743V219.676C546.183 237.34 530.439 246.172 509.511 246.172C495.111 246.172 483.591 242.62 474.951 235.516C466.503 228.22 462.279 218.524 462.279 206.428V94.972H485.607V196.924C485.607 205.564 488.391 212.476 493.959 217.66C499.527 222.844 507.015 225.436 516.423 225.436C528.711 225.436 538.503 221.02 545.799 212.188C553.095 203.164 556.743 191.068 556.743 175.9V94.972H580.071V243.004ZM620.649 94.972H642.537V122.044C651.177 101.692 664.809 91.516 683.433 91.516C685.737 91.516 688.521 91.804 691.785 92.38V116.572C676.425 116.764 665.865 118.972 660.105 123.196C649.545 130.876 644.265 145.18 644.265 166.108V243.004H620.649V94.972ZM737.332 94.972V243.004H714.004V94.972H737.332ZM726.1 37.084C730.132 37.084 733.492 38.524 736.18 41.404C739.06 44.092 740.5 47.356 740.5 51.196C740.5 55.228 739.06 58.684 736.18 61.564C733.492 64.252 730.132 65.596 726.1 65.596C722.26 65.596 718.9 64.252 716.02 61.564C713.332 58.684 711.988 55.228 711.988 51.196C711.988 47.356 713.332 44.092 716.02 41.404C718.9 38.524 722.26 37.084 726.1 37.084ZM777.875 94.972H799.763V120.028C811.667 101.212 827.987 91.804 848.723 91.804C863.123 91.804 874.547 95.452 882.995 102.748C891.443 109.852 895.667 119.452 895.667 131.548V243.004H872.339V141.052C872.339 132.22 869.555 125.212 863.987 120.028C858.611 114.844 851.219 112.252 841.811 112.252C829.523 112.252 819.731 116.764 812.435 125.788C805.139 134.812 801.491 146.812 801.491 161.788V243.004H777.875V94.972ZM1031.57 94.972H1053.46V218.812C1053.46 250.876 1048.28 273.148 1037.91 285.628C1027.54 298.3 1010.55 304.636 986.934 304.636C968.502 304.636 954.102 300.22 943.734 291.388C934.518 283.516 929.334 273.052 928.182 259.996H952.374C953.526 267.676 956.406 273.34 961.014 276.988C967.734 282.172 976.758 284.764 988.086 284.764C1003.45 284.764 1014.39 280.156 1020.92 270.94C1026.49 263.068 1029.27 249.628 1029.27 230.62V221.116C1016.98 237.82 1002.2 246.172 984.918 246.172C968.022 246.172 953.718 239.836 942.006 227.164C929.526 213.532 923.286 194.908 923.286 171.292C923.286 145.948 929.814 125.788 942.87 110.812C954.39 98.14 968.886 91.804 986.358 91.804C1005.17 91.804 1020.25 100.252 1031.57 117.148V94.972ZM988.95 113.404C976.278 113.404 966.198 118.492 958.71 128.668C951.414 138.652 947.766 152.38 947.766 169.852C947.766 188.092 951.99 202.012 960.438 211.612C967.542 220.06 977.142 224.284 989.238 224.284C1001.91 224.284 1011.7 219.484 1018.61 209.884C1025.72 200.284 1029.27 186.94 1029.27 169.852C1029.27 151.036 1025.24 136.636 1017.17 126.652C1010.07 117.82 1000.66 113.404 988.95 113.404Z" fill="black" fill-opacity="0.6"/>
</g>
<defs>
<clipPath id="clip0">
<rect width="1179" height="384" fill="white" transform="translate(1)"/>
</clipPath>
</defs>
</svg>
