<svg width="1179" height="384" viewBox="0 0 1179 384" fill="none" xmlns="http://www.w3.org/2000/svg">
<g clip-path="url(#clip0)">
<path d="M102.696 246.852C92.8177 241.572 74.2276 231.586 67.6795 228.04L85.0747 194.486C83.7784 193.97 82.4859 193.427 81.2169 192.857H81.213H81.2091C81.2052 192.857 81.2052 192.857 81.2052 192.857L81.2013 192.853C81.1935 192.849 81.1896 192.849 81.1857 192.845C81.1779 192.842 81.174 192.842 81.174 192.838H81.1701C81.1662 192.838 81.1662 192.838 81.1662 192.838C81.1623 192.834 81.1545 192.83 81.1506 192.83C81.1467 192.826 81.1427 192.826 81.1388 192.822C81.1349 192.822 81.131 192.822 81.1232 192.818C79.8347 192.236 78.5618 191.631 77.3045 190.994C77.281 190.983 77.2615 190.971 77.2381 190.959C77.2342 190.959 77.2342 190.959 77.2342 190.959C77.2264 190.955 77.2225 190.951 77.2186 190.951L77.2068 190.947C77.2029 190.944 77.1951 190.94 77.1912 190.936C77.1873 190.932 77.1834 190.932 77.1834 190.928H77.1795C77.1756 190.928 77.1756 190.928 77.1717 190.928V190.924C77.1639 190.924 77.1639 190.92 77.1561 190.92C75.93 190.295 74.7118 189.647 73.5169 188.971C73.513 188.967 73.513 188.967 73.5091 188.967C73.5013 188.964 73.4974 188.96 73.4935 188.956C73.4896 188.956 73.4896 188.952 73.4857 188.952C73.4818 188.952 73.4818 188.948 73.4818 188.948C73.474 188.948 73.4701 188.94 73.4623 188.94C73.4584 188.936 73.4584 188.936 73.4545 188.936C73.4428 188.928 73.4349 188.921 73.4232 188.917C73.4232 188.917 73.4232 188.913 73.4193 188.913C73.4154 188.909 73.4076 188.909 73.4037 188.901C72.2909 188.272 71.1859 187.628 70.1004 186.952L69.7411 186.823L51.3502 222.194C44.0797 217.894 23.4787 205.753 15.0251 201.297C13.5414 200.512 12.0264 200.113 10.5152 200.113C7.11039 200.113 4.26389 202.128 2.90507 205.491C1.16749 209.81 2.94411 213.895 7.66094 216.414C16.3918 221.089 36.8405 231.895 43.9548 235.656C42.1469 239.046 40.1516 242.783 38.1017 246.618C33.9471 254.401 29.5739 262.575 26.1456 269.074C24.6501 271.909 24.4744 274.967 25.6653 277.458C26.786 279.802 28.9335 281.387 31.7097 281.93C32.2642 282.043 32.8187 282.094 33.3575 282.094C35.1615 282.094 38.539 281.43 40.9247 276.97C45.6025 268.218 55.9304 248.813 59.5773 241.963C63.4585 243.998 71.3225 248.157 77.9722 251.668C85.0552 255.413 91.8962 259.033 94.7622 260.529C97.1792 261.798 99.0261 262.364 100.744 262.364C102.857 262.364 104.661 261.458 105.957 259.744C107.538 257.647 108.128 255.206 107.612 252.874C107.066 250.394 105.32 248.25 102.696 246.852Z" fill="#FA627D"/>
<path d="M10.5152 202.359C8.02017 202.359 6.00536 203.808 4.99015 206.331C3.22915 210.708 6.57154 213.286 8.7191 214.434C14.6854 217.625 26.8953 224.1 45.0012 233.664L46.9965 234.722L45.9383 236.71C44.314 239.76 42.5335 243.088 40.7022 246.516L39.9369 247.954C35.8253 255.643 31.5184 263.7 28.1331 270.12C26.9695 272.327 26.8094 274.647 27.6918 276.486C28.5079 278.197 30.0464 279.321 32.1393 279.727C32.5571 279.809 32.9631 279.852 33.3575 279.852C34.9467 279.852 37.2036 279.169 38.9412 275.912C43.6229 267.156 53.9468 247.758 57.5937 240.908L58.6402 238.936L60.6198 239.975C64.2395 241.869 71.3225 245.614 77.652 248.961L79.0225 249.68C86.1173 253.433 92.9426 257.041 95.8008 258.537C97.882 259.631 99.4048 260.115 100.744 260.115C102.146 260.115 103.298 259.533 104.165 258.389C105.344 256.827 105.793 255.038 105.422 253.363C105.016 251.531 103.673 249.922 101.638 248.832C91.6736 243.509 73.0132 233.488 66.6096 230.016L64.6729 228.966L81.951 195.63C81.4239 195.407 80.9046 195.181 80.393 194.95L80.1783 194.857C78.8351 194.251 77.527 193.627 76.2892 192.998L76.0433 192.873C74.7977 192.236 73.6653 191.631 72.5681 191.014L72.205 190.807C71.6583 190.494 71.1468 190.202 70.6626 189.916L52.2483 225.334L50.21 224.127C42.0532 219.3 22.1902 207.612 13.9787 203.28C12.8229 202.671 11.6554 202.359 10.5152 202.359ZM33.3575 284.344C32.6742 284.344 31.9714 284.273 31.2724 284.137C27.7856 283.453 25.0718 281.422 23.6388 278.423C22.1394 275.287 22.3307 271.495 24.1581 268.027C27.5513 261.599 31.8581 253.534 35.9736 245.837L36.7428 244.4C38.1798 241.705 39.5893 239.073 40.913 236.585C23.8887 227.591 12.3504 221.475 6.60277 218.394C0.859019 215.328 -1.35492 210.06 0.823877 204.651C2.53412 200.402 6.16155 197.864 10.5152 197.864C12.3973 197.864 14.2676 198.352 16.0794 199.313C23.7481 203.355 41.3699 213.692 50.4521 219.054L68.6439 184.062L71.2874 185.046C72.2011 185.613 73.1929 186.202 74.3994 186.89L74.7977 187.112C75.7973 187.675 76.8749 188.257 78.0385 188.846L78.3626 189.014C79.5496 189.612 80.7484 190.182 81.9822 190.74L82.2204 190.85C83.3567 191.358 84.6179 191.889 85.8986 192.392L88.2102 193.31L70.69 227.115C78.3353 231.243 94.6646 240.014 103.759 244.872C106.968 246.583 109.116 249.262 109.807 252.394C110.463 255.378 109.733 258.467 107.749 261.095C106.035 263.364 103.548 264.614 100.744 264.614C98.6395 264.614 96.4724 263.965 93.7157 262.513C90.8614 261.025 84.0244 257.408 76.9452 253.667L75.5552 252.929C70.237 250.121 64.3878 247.032 60.5105 244.993C56.2232 253.046 47.1917 270.011 42.9044 278.029C39.8627 283.73 35.2161 284.344 33.3575 284.344Z" fill="#FA627D"/>
<path fill-rule="evenodd" clip-rule="evenodd" d="M75.0163 54.4091C73.9074 51.3278 72.8141 48.2895 71.6778 45.1418C81.3224 46.8718 90.8771 48.5863 100.529 50.3163C94.2194 57.795 87.9603 65.2113 81.6269 72.7173C80.5414 69.7102 79.4794 66.7851 78.4056 63.8093C67.7966 70.4093 59.6203 79.165 54.0405 90.2874C48.4724 101.394 46.3327 113.177 47.3635 125.599C44.1148 125.888 40.9091 126.174 37.6019 126.47C36.3797 111.857 39.0271 98.0356 45.7821 85.0465C52.5489 72.0378 62.3379 61.88 75.0163 54.4091Z" fill="#FA627D"/>
<path d="M75.9691 48.762L78.4485 55.6471L76.4415 56.8304C64.1809 64.0514 54.7043 73.9788 48.2733 86.3391C42.2953 97.8404 39.5854 110.302 40.2141 123.42L44.3882 123.045C43.8376 111.021 46.2351 99.5899 51.5337 89.0299C57.2462 77.6342 65.7896 68.3473 76.9257 61.4231L79.8698 59.5915L82.6148 67.1952L95.2464 52.2221L75.9691 48.762ZM35.0365 129.52L34.8022 126.705C33.5293 111.482 36.3875 97.028 43.2949 83.7499C49.8625 71.1201 59.3782 60.8529 71.5997 53.1985L67.3866 41.5215L105.808 48.4105L80.639 78.2434L76.9765 68.1051C68.148 74.2365 61.2875 82.1058 56.5512 91.545C51.315 101.984 49.1675 113.36 50.1592 125.365L50.3896 128.146" fill="#FA627D"/>
<path fill-rule="evenodd" clip-rule="evenodd" d="M47.6603 162.462C44.599 163.594 41.569 164.711 38.4219 165.871C40.0735 156.221 41.7135 146.641 43.3691 136.98C50.8973 143.24 58.3747 149.445 65.9146 155.71C62.9197 156.819 60.0107 157.897 57.0354 158.998C63.646 169.476 72.408 177.533 83.4738 183.031C94.5201 188.522 106.222 190.666 118.546 189.608C118.838 192.865 119.123 196.071 119.416 199.375C104.895 200.59 91.1582 197.981 78.2338 191.315C65.3094 184.652 55.169 174.99 47.6603 162.462Z" fill="#FA627D"/>
<path d="M48.8747 159.021L50.0695 161.021C57.3282 173.135 67.2383 182.488 79.5184 188.819C89.8619 194.15 100.986 196.852 112.583 196.852C113.833 196.852 115.094 196.825 116.367 196.762L115.992 192.592C114.824 192.646 113.657 192.674 112.505 192.674C101.927 192.674 91.74 190.276 82.2244 185.546C70.854 179.895 61.5843 171.468 54.6614 160.498L52.8145 157.569L60.3817 154.765L45.3175 142.248L42.0103 161.556L48.8747 159.021ZM112.583 202.472C100.08 202.472 88.0931 199.555 76.9453 193.81C64.4035 187.343 54.1616 177.954 46.4811 165.891L34.8374 170.187L41.4246 131.711L71.4475 156.655L61.3422 160.396C67.4608 169.081 75.3131 175.842 84.7233 180.516C95.1683 185.71 106.461 187.823 118.303 186.808L121.091 186.57L122.466 201.933L119.651 202.171C117.28 202.371 114.906 202.472 112.583 202.472Z" fill="#FA627D"/>
<path fill-rule="evenodd" clip-rule="evenodd" d="M148.65 168.808C149.755 171.803 150.829 174.693 151.942 177.681C162.426 171.054 170.458 162.306 175.956 151.261C181.45 140.221 183.566 128.521 182.543 116.176C185.792 115.883 189.009 115.598 192.297 115.301C192.371 116.363 192.469 117.383 192.519 118.406C192.761 123.334 192.531 128.239 191.785 133.113C189.591 147.508 183.73 160.224 174.269 171.284C170.845 175.291 167.03 178.896 162.824 182.059C160.587 183.742 158.197 185.218 155.855 186.761C155.495 186.999 155.421 187.167 155.573 187.569C156.655 190.44 157.709 193.318 158.814 196.306C149.162 194.654 139.596 193.017 129.928 191.361C136.175 183.836 142.38 176.361 148.65 168.808Z" fill="#FA627D"/>
<path d="M135.191 189.413L154.496 192.717C153.976 191.322 153.469 189.94 152.946 188.561C152.329 186.937 152.836 185.382 154.308 184.414C154.871 184.047 155.433 183.684 155.991 183.316C157.803 182.149 159.505 181.044 161.134 179.817C165.124 176.814 168.826 173.33 172.133 169.46C181.235 158.822 186.908 146.45 189.013 132.692C189.712 128.095 189.954 123.334 189.712 118.546C189.712 118.48 189.708 118.418 189.708 118.355L185.518 118.73C186.061 130.657 183.695 142.01 178.466 152.511C172.824 163.856 164.402 173.123 153.441 180.055L150.517 181.903L147.709 174.342L135.191 189.413ZM163.137 199.891L124.66 193.306L149.591 163.278L153.336 173.373C162.012 167.25 168.771 159.404 173.445 150.012C178.611 139.624 180.731 128.318 179.743 116.406L179.517 113.63L194.889 112.251L195.174 116.106C195.233 116.836 195.288 117.554 195.319 118.273C195.577 123.436 195.319 128.571 194.561 133.539C192.301 148.352 186.194 161.665 176.405 173.108C172.824 177.29 168.826 181.059 164.511 184.304C162.723 185.648 160.856 186.859 159.049 188.03C158.967 188.085 158.885 188.136 158.803 188.19C159.419 189.842 160.036 191.506 160.657 193.197" fill="#FA627D"/>
<path fill-rule="evenodd" clip-rule="evenodd" d="M191.481 77.0171C189.825 86.6906 188.185 96.2626 186.537 105.909C179.005 99.6563 171.532 93.4508 163.988 87.1866C166.979 86.0775 169.884 84.9996 172.867 83.8944C166.257 73.4437 157.522 65.3987 146.479 59.8961C135.464 54.4013 123.793 52.2807 111.494 53.2727C111.209 50.0391 110.927 46.8328 110.642 43.5953C111.177 43.525 111.685 43.4234 112.197 43.3922C121.458 42.8025 130.533 43.8139 139.408 46.5672C150.107 49.8867 159.599 55.3191 167.9 62.8368C173.414 67.8279 178.076 73.5179 181.895 79.9032C182.141 80.3171 182.34 80.4147 182.824 80.2312C185.655 79.1494 188.505 78.1145 191.481 77.0171Z" fill="#FA627D"/>
<path d="M169.521 88.1317L184.589 100.644L187.896 81.3286C186.526 81.8363 185.171 82.3401 183.824 82.8556C183.339 83.0391 182.886 83.129 182.434 83.129C181.731 83.129 180.411 82.8946 179.486 81.3442C175.819 75.2167 171.29 69.6907 166.018 64.9184C158.037 57.6935 148.807 52.4213 138.576 49.2502C130.603 46.7742 122.274 45.7237 113.68 46.122L114.051 50.3007C115.137 50.2538 116.218 50.2304 117.288 50.2304C127.971 50.2304 138.213 52.6361 147.737 57.3811C159.06 63.0321 168.314 71.4481 175.241 82.3948L177.092 85.3238L169.521 88.1317ZM188.486 111.173L158.459 86.2415L168.56 82.4963C162.442 73.8304 154.605 67.0819 145.23 62.4072C134.871 57.2405 123.61 55.116 111.72 56.0728L108.94 56.2954L107.609 41.1739L110.717 40.7483C111.158 40.6819 111.587 40.6155 112.021 40.5881C121.708 39.975 131.208 41.0841 140.24 43.8882C151.255 47.3053 161.196 52.9798 169.782 60.7553C175.046 65.5198 179.622 70.9795 183.41 77.0054C184.972 76.4235 186.541 75.8416 188.142 75.2558L195.065 72.6978" fill="#FA627D"/>
<path fill-rule="evenodd" clip-rule="evenodd" d="M108.944 173.194C103.887 169.558 100.436 163.762 97.7571 156.92C97.7102 156.967 97.6595 157.014 97.6165 157.057C97.6985 157.506 97.7415 158.006 97.8859 158.393C98.1202 159.037 98.0109 159.72 97.6556 160.65C96.7731 162.95 96.2186 165.258 95.8008 167.535C95.0355 171.714 94.7036 175.701 94.8013 179.501C94.8013 179.556 94.7661 179.634 94.6841 179.911C94.321 178.915 93.9657 178.06 93.6845 177.13C92.5365 173.354 92.3296 168.906 92.5912 164.137C92.8606 159.193 93.5752 154.085 94.7075 148.848C95.547 144.954 96.3904 141.041 97.4603 137.12C98.7411 132.403 100.217 127.669 101.689 122.948C102.583 120.073 103.637 117.207 104.625 114.336C104.653 114.251 104.703 114.165 104.84 113.887C104.551 115.309 104.278 116.539 104.051 117.761C103.235 122.174 102.716 126.447 103.38 130.13C104.551 136.624 110.439 136.452 115.457 135.574C117.932 135.144 120.428 134.648 122.915 134.168C123.571 134.043 124.235 133.883 124.898 133.828C124.758 133.906 124.621 133.996 124.484 134.062C120.49 135.964 116.503 138.233 112.536 141.385C110.904 142.681 109.323 144.173 107.804 145.927C105.059 149.098 103.813 152.507 103.852 156.213C103.883 159.334 104.469 161.993 105.238 164.504C106.172 167.543 107.386 170.273 108.764 172.815C108.823 172.936 108.885 173.065 108.944 173.194Z" fill="#FA627D"/>
<path fill-rule="evenodd" clip-rule="evenodd" d="M104.524 79.9852C104.352 80.157 104.161 80.3171 104.02 80.5085C101.732 83.4843 100.026 86.7843 98.8309 90.3187C97.5501 94.1068 97.0035 98.0278 97.1518 102.054C97.1831 102.87 97.062 103.64 97.3002 104.483C97.472 105.1 97.2026 105.854 97.6165 106.495C97.6946 106.62 97.6634 106.815 97.5462 107.049C97.1597 106.456 96.7419 105.878 96.3904 105.268C94.2038 101.464 92.6615 97.4381 92.1734 93.0524C91.8142 89.8149 91.9118 86.593 93.0207 83.5C93.6728 81.6801 94.3678 79.8289 95.3908 78.2082C97.1948 75.3456 99.6547 73.0883 102.634 71.4168C106.757 69.1088 111.22 68.1598 115.894 68.0583C117.128 68.0348 118.362 68.1051 119.596 68.1364C120.474 68.1598 120.56 68.2457 120.592 69.1557C120.752 73.7757 120.533 78.3722 119.455 82.8829C119.045 84.5974 118.545 86.3001 117.948 87.9598C117.366 89.5727 116.726 91.1896 115.894 92.6853C113.879 96.329 111.248 99.4611 107.835 101.91C105.926 103.273 103.907 104.397 101.709 105.21C101.139 105.417 100.885 105.339 100.729 104.722C99.8851 101.449 99.5766 98.1254 99.8343 94.7629C100.037 92.1503 100.428 89.5493 101.463 87.1163C102.415 84.8903 103.477 82.715 104.493 80.5124C104.555 80.3757 104.606 80.2312 104.664 80.0906C104.621 80.0554 104.571 80.0203 104.524 79.9852Z" fill="#FA627D"/>
<path fill-rule="evenodd" clip-rule="evenodd" d="M148.627 110.029C150.728 105.46 151.267 100.715 150.228 95.8213C149.943 94.4896 149.486 93.193 148.971 91.9042C150.427 97.7154 149.849 103.214 146.745 108.6C145.644 107.631 144.57 106.834 143.676 105.878C139.869 101.828 138.42 96.9109 138.44 91.4473C138.459 88.0653 139.154 84.8043 139.982 81.559C140.115 81.0396 140.38 80.8443 140.911 80.9459C144.972 81.7347 148.729 83.1875 151.68 86.1868C154.695 89.2525 156.061 92.9782 155.683 97.3014C155.405 100.508 154.297 103.402 152.395 105.971C151.306 107.444 150.08 108.807 148.912 110.216C148.818 110.154 148.725 110.091 148.627 110.029Z" fill="#FA627D"/>
<path fill-rule="evenodd" clip-rule="evenodd" d="M106.824 110.994C112.505 114.2 118.397 114.418 124.465 112.345C118.799 113.493 113.516 112.665 108.53 109.295C109.241 108.529 109.858 107.76 110.58 107.112C114.984 103.124 120.228 101.753 126.046 102.207C129.162 102.453 132.161 103.202 135.078 104.304C135.66 104.522 135.816 104.804 135.566 105.401C134.949 106.901 134.535 108.506 133.77 109.92C131.669 113.774 128.823 116.859 124.461 118.211C121.661 119.078 118.889 118.972 116.097 118.121C112.267 116.949 109.452 114.43 106.968 111.443C106.902 111.372 106.867 111.275 106.832 111.185C106.816 111.15 106.828 111.103 106.824 110.994Z" fill="#FA627D"/>
<path fill-rule="evenodd" clip-rule="evenodd" d="M138.865 137.819C142.832 137.507 146.257 135.831 149.506 133.652C146.323 134.484 143.145 135.32 139.717 134.949C140.072 133.387 140.759 132.059 141.571 130.797C144.269 126.58 148.272 124.24 153.059 123.342C155.402 122.905 157.779 122.335 160.224 122.592C160.665 122.635 161.001 122.639 160.911 123.217C160.411 126.377 159.622 129.45 158.158 132.313C156.663 135.238 154.707 137.765 151.692 139.284C148.853 140.713 145.909 140.811 142.946 139.807C141.532 139.327 140.173 138.678 138.787 138.108C138.815 138.011 138.842 137.917 138.865 137.819Z" fill="#FA627D"/>
<path fill-rule="evenodd" clip-rule="evenodd" d="M79.7448 100.129C79.7683 98.5433 79.7448 96.946 79.8347 95.3605C79.9284 93.7944 80.1236 92.2323 80.8538 90.6311C81.6035 91.1544 82.3336 91.584 82.9623 92.1229C86.7928 95.3956 88.4913 99.672 88.6787 104.612C88.7802 107.412 88.4327 110.169 87.6401 112.868C87.4644 113.47 87.2496 113.563 86.6756 113.305C83.7588 111.997 80.9397 110.537 78.5695 108.346C75.8636 105.846 73.8644 102.949 73.6419 99.1213C73.4935 96.5946 74.2978 94.3256 75.6449 92.244C76.3634 91.1349 77.2263 90.1234 78.1478 89.108C77.648 92.9704 78.4055 96.5946 79.7448 100.129Z" fill="#FA627D"/>
<path fill-rule="evenodd" clip-rule="evenodd" d="M77.2576 125.947C80.4438 130.102 84.657 132.481 89.9556 133.106C89.7486 133.18 89.5495 133.258 89.3425 133.32C86.4726 134.152 83.5441 134.422 80.6547 133.648C76.0589 132.41 72.6736 129.247 71.916 124.115C71.51 121.374 71.9004 118.707 72.8493 116.113C72.9664 115.797 73.0601 115.551 73.5131 115.672C76.1292 116.352 78.7336 117.082 81.0842 118.441C85.3481 120.901 88.503 124.268 89.5222 129.274C89.6003 129.653 89.651 130.04 89.7018 130.423C89.7252 130.59 89.7018 130.758 89.7018 131.059C84.821 131.071 80.764 129.231 77.2576 125.947Z" fill="#FA627D"/>
<path fill-rule="evenodd" clip-rule="evenodd" d="M136.921 112.521C138.932 116.055 140.337 119.734 140.072 123.842C139.896 126.72 138.963 129.337 136.85 131.539C134.262 128.782 133.122 125.521 132.985 121.843C132.512 125.896 133.52 129.552 136.019 132.938C132.415 131.184 129.111 127.404 129.076 122.885C129.041 118.105 132.45 114.336 136.921 112.521Z" fill="#FA627D"/>
<path fill-rule="evenodd" clip-rule="evenodd" d="M127.038 79.825C127.077 83.703 128.518 86.9835 131.392 89.7212C126.808 88.4714 122.716 84.3669 123.219 79.1143C123.403 77.1811 124.102 75.4042 125.347 73.9358C126.359 72.7447 127.554 71.7059 128.717 70.6553C129.342 70.093 129.506 70.1789 130.029 70.8701C131.763 73.1469 133.161 75.5917 133.805 78.4074C134.543 81.6371 134.152 84.7223 132.536 87.6318C132.169 88.2879 131.993 88.3426 131.435 87.8466C129.268 85.9252 127.823 83.5703 127.222 80.7194C127.163 80.4226 127.097 80.1258 127.038 79.825Z" fill="#FA627D"/>
<path fill-rule="evenodd" clip-rule="evenodd" d="M117.421 148.832C119.92 151.855 123.122 153.55 126.964 154.065C125.441 153.323 123.871 152.667 122.419 151.812C120.923 150.929 119.791 149.625 118.85 148.012C119.338 147.782 119.752 147.555 120.197 147.387C122.973 146.349 125.777 146.349 128.596 147.255C131.583 148.211 134.02 150.02 136.23 152.167C136.351 152.289 136.331 152.745 136.206 152.89C133.793 155.631 130.978 157.69 127.14 157.713C124.219 157.729 121.841 156.448 119.967 154.261C118.639 152.706 117.815 150.894 117.421 148.832Z" fill="#FA627D"/>
<path fill-rule="evenodd" clip-rule="evenodd" d="M158.455 113.329C160.489 110.134 161.134 106.682 160.318 102.945C162.043 104.007 163.348 108.744 162.906 111.482C162.328 115.051 159.056 117.687 157.03 118.148C156.956 117.824 156.917 117.484 156.788 117.183C156.725 117.035 156.44 116.848 156.343 116.891C156.171 116.957 155.983 117.183 155.96 117.359C155.913 117.765 156.128 118.355 155.925 118.55C155.679 118.792 155.113 118.703 154.687 118.773C153.738 118.937 152.789 119.105 151.673 119.3C151.614 118.066 151.493 116.965 151.524 115.867C151.591 113.216 152.118 110.669 153.465 108.334C154.617 106.327 156.202 104.788 158.268 103.718C158.795 103.445 158.974 103.577 159.131 104.101C159.993 106.994 159.732 109.798 158.553 112.552C158.455 112.786 158.369 113.024 158.275 113.263C158.338 113.286 158.396 113.305 158.455 113.329Z" fill="#FA627D"/>
<path fill-rule="evenodd" clip-rule="evenodd" d="M116.726 128.599C115.793 130.403 114.375 131.657 112.45 132.203C108.686 133.277 105.965 130.251 106.746 126.755C107.363 124.002 109.127 122.124 111.997 121.534C115.379 120.839 118.112 123.815 117.187 127.142C117.05 127.634 116.878 128.111 116.726 128.599Z" fill="#FA627D"/>
<path fill-rule="evenodd" clip-rule="evenodd" d="M106.285 146.411C106.777 146.118 107.253 145.79 107.765 145.532C108.96 144.919 110.24 144.525 111.548 144.247C112.97 143.951 114.328 143.513 115.629 142.845C116.859 142.213 118.003 141.494 118.94 140.471C120.135 139.163 120.748 137.651 120.525 135.859C120.47 135.402 120.342 134.961 120.185 134.511C120.334 136.573 119.49 138.151 117.948 139.401C118.237 138.944 118.577 138.503 118.807 138.007C119.35 136.82 119.471 135.574 119.147 134.293C118.741 132.653 117.772 131.368 116.507 130.298C115.668 129.587 114.742 128.978 113.895 128.275C113.106 127.622 112.31 126.962 111.63 126.209C110.65 125.127 110.111 123.869 110.67 122.366C110.256 122.92 110.104 123.561 110.096 124.229C110.084 125.642 110.654 126.857 111.447 127.97C112.075 128.853 112.786 129.669 113.395 130.559C114.34 131.946 115.016 133.457 115.254 135.132C115.539 137.151 114.992 138.909 113.602 140.397C112.954 141.088 112.239 141.709 111.4 142.154C110.771 142.486 110.115 142.767 109.463 143.045C108.198 143.58 106.953 144.15 105.848 144.986C105.094 145.556 104.43 146.216 104.215 147.192C104.044 147.965 104.227 148.672 104.672 149.317C104.836 149.555 105.012 149.789 105.219 150.016C105.356 148.891 105.82 147.993 106.789 147.415C107.706 146.872 108.729 146.727 109.78 146.673C108.655 146.196 107.511 146.099 106.328 146.509C106.312 146.473 106.3 146.446 106.285 146.411Z" fill="#FA627D"/>
<path fill-rule="evenodd" clip-rule="evenodd" d="M113.665 120.874C112.895 120.655 112.001 120.999 111.494 121.671C110.408 123.112 110.814 125.201 112.38 126.279C113.138 126.802 114.02 127.017 114.859 127.345C115.754 127.704 116.667 128.064 117.499 128.548C119.127 129.497 120.189 130.794 119.69 132.875C120.502 132.223 121.138 129.735 120.81 128.396C120.303 126.326 118.706 125.342 116.902 124.572C118.514 125.646 119.912 126.869 120.06 128.989C119.986 128.814 119.916 128.638 119.826 128.47C119.303 127.501 118.448 126.888 117.483 126.459C116.46 126.01 115.391 125.658 114.336 125.271C113.614 125.006 112.958 124.623 112.474 124.026C112.06 123.506 111.908 122.565 112.419 121.69C112.689 121.229 113.098 120.983 113.665 120.874Z" fill="#FA627D"/>
<path fill-rule="evenodd" clip-rule="evenodd" d="M101.365 147.137C101.373 147.118 101.388 147.094 101.385 147.079C100.963 145.821 101.482 144.888 102.427 144.115C103.466 143.275 104.676 142.756 105.937 142.373C107.035 142.033 108.163 141.814 109.256 141.479C110.568 141.08 111.829 140.561 112.86 139.616C114.18 138.413 114.735 136.921 114.516 135.168C114.434 134.504 114.239 133.851 114.032 133.195C113.868 134.265 113.567 135.257 112.989 136.163C112.411 137.073 111.642 137.78 110.767 138.393C112.095 137.89 113.13 137.054 113.739 135.734C113.766 135.746 113.797 135.761 113.821 135.777C113.594 136.257 113.403 136.761 113.13 137.214C112.193 138.745 110.771 139.655 109.112 140.202C107.991 140.569 106.828 140.803 105.699 141.147C104.34 141.557 103.028 142.088 101.916 143.006C101.771 143.123 101.634 143.252 101.474 143.361C101.748 142.689 102.22 142.154 102.81 141.631C100.607 142.396 99.7836 145.681 101.365 147.137Z" fill="#FA627D"/>
<path fill-rule="evenodd" clip-rule="evenodd" d="M114.871 143.763C114.489 145.47 113.341 146.466 111.872 147.13C111.138 147.462 110.334 147.645 109.561 147.891C109.475 147.922 109.381 147.938 109.291 147.997C110.467 148.086 111.611 147.961 112.767 147.645C112.685 147.696 112.603 147.766 112.513 147.805C111.708 148.122 110.904 148.438 110.092 148.746C109.483 148.981 108.854 149.176 108.245 149.414C107.663 149.641 107.265 150.109 106.874 150.558C106.507 150.988 106.394 151.539 106.382 152.089C106.351 153.253 106.843 154.241 107.515 155.167C107.511 155.12 107.511 155.077 107.499 155.03C107.117 153.71 107.546 152.648 108.62 151.863C109.237 151.41 109.924 151.054 110.599 150.683C112.13 149.836 113.501 148.805 114.367 147.235C114.91 146.263 115.125 145.22 114.945 144.107C114.926 143.99 114.895 143.88 114.871 143.763Z" fill="#FA627D"/>
<path fill-rule="evenodd" clip-rule="evenodd" d="M115.492 143.673C115.836 146.458 114.418 148.434 112.474 150.238C112.618 150.195 112.712 150.18 112.798 150.145C114.207 149.609 115.492 148.891 116.414 147.661C117.515 146.181 117.706 144.529 117.241 142.775C117.234 142.732 117.206 142.697 117.144 142.576C117.093 144.251 116.597 145.696 115.676 146.997C115.98 145.868 116 144.759 115.492 143.673Z" fill="#FA627D"/>
<path fill-rule="evenodd" clip-rule="evenodd" d="M106.687 149.918C105.352 150.543 104.301 151.609 104.852 153.253C105.078 153.94 105.445 154.589 105.762 155.249C106.074 155.901 106.429 156.534 106.714 157.198C106.956 157.756 106.968 158.338 106.675 158.904C107.265 158.459 107.452 157.842 107.425 157.139C107.39 156.405 107.046 155.78 106.726 155.136C106.386 154.452 106.062 153.753 105.808 153.034C105.512 152.199 105.644 151.363 106.078 150.594C106.215 150.351 106.453 150.168 106.687 149.918Z" fill="#FA627D"/>
<path fill-rule="evenodd" clip-rule="evenodd" d="M103.965 150.519C102.447 148.106 102.931 145.892 104.664 143.794C103.493 144.482 102.376 145.216 102.013 146.63C101.794 147.462 101.97 148.247 102.505 148.93C102.946 149.496 103.423 150.047 103.883 150.601C103.911 150.574 103.942 150.547 103.965 150.519Z" fill="#FA627D"/>
<path fill-rule="evenodd" clip-rule="evenodd" d="M108.807 121.378C107.281 122.491 106.886 124.982 107.628 126.49C108.104 125.849 108.6 125.189 109.12 124.49C108.389 123.588 108.311 122.526 108.807 121.378Z" fill="#FA627D"/>
<path fill-rule="evenodd" clip-rule="evenodd" d="M113.196 123.061C113.727 121.237 115.555 120.823 116.597 122.116C116.425 120.292 114.481 119.199 112.86 120.112C114.059 119.933 115.016 120.218 115.785 121.073C114.996 120.804 114.289 120.905 113.684 121.487C113.262 121.889 113.098 122.417 113.196 123.061Z" fill="#FA627D"/>
<path fill-rule="evenodd" clip-rule="evenodd" d="M106.691 124.123C106.004 125.99 106.273 127.818 107.226 129.595C107.226 129.52 107.226 129.438 107.222 129.364C107.206 129.13 107.159 128.896 107.179 128.665C107.222 128.212 107.386 127.747 107.339 127.314C107.288 126.884 106.968 126.494 106.89 126.064C106.769 125.416 106.749 124.748 106.691 124.123Z" fill="#FA627D"/>
<path fill-rule="evenodd" clip-rule="evenodd" d="M109.576 124.295C109.327 123.366 109.416 122.518 109.811 121.714C110.201 120.909 110.775 120.3 111.763 120.12C110.885 119.909 109.955 120.448 109.385 121.444C108.835 122.421 108.893 123.588 109.576 124.295Z" fill="#FA627D"/>
<path fill-rule="evenodd" clip-rule="evenodd" d="M103.571 147.407C104.122 144.818 106.133 143.732 108.374 142.799C105.43 143.291 103.622 145.177 103.571 147.407Z" fill="#FA627D"/>
<path d="M367.773 175.9H258.621C258.813 188.572 261.501 198.652 266.685 206.14C274.941 218.236 286.845 224.284 302.397 224.284C321.597 224.284 334.557 215.164 341.277 196.924H364.893C361.821 212.476 354.717 224.572 343.581 233.212C332.445 241.852 318.429 246.172 301.533 246.172C279.069 246.172 261.885 238.492 249.981 223.132C239.421 209.692 234.141 191.932 234.141 169.852C234.141 144.316 241.053 124.444 254.877 110.236C266.973 97.948 282.621 91.804 301.821 91.804C315.837 91.804 328.125 95.164 338.685 101.884C349.437 108.604 357.117 117.82 361.725 129.532C365.757 139.516 367.773 154.684 367.773 175.036V175.9ZM342.429 156.604C342.429 143.74 338.589 133.372 330.909 125.5C323.421 117.436 313.725 113.404 301.821 113.404C289.725 113.404 279.837 117.34 272.157 125.212C264.669 132.892 260.445 143.356 259.485 156.604H342.429ZM423.04 36.796V243.004H399.424V36.796H423.04ZM579.071 243.004H555.743V219.676C545.183 237.34 529.439 246.172 508.511 246.172C494.111 246.172 482.591 242.62 473.951 235.516C465.503 228.22 461.279 218.524 461.279 206.428V94.972H484.607V196.924C484.607 205.564 487.391 212.476 492.959 217.66C498.527 222.844 506.015 225.436 515.423 225.436C527.711 225.436 537.503 221.02 544.799 212.188C552.095 203.164 555.743 191.068 555.743 175.9V94.972H579.071V243.004ZM619.649 94.972H641.537V122.044C650.177 101.692 663.809 91.516 682.433 91.516C684.737 91.516 687.521 91.804 690.785 92.38V116.572C675.425 116.764 664.865 118.972 659.105 123.196C648.545 130.876 643.265 145.18 643.265 166.108V243.004H619.649V94.972ZM736.332 94.972V243.004H713.004V94.972H736.332ZM725.1 37.084C729.132 37.084 732.492 38.524 735.18 41.404C738.06 44.092 739.5 47.356 739.5 51.196C739.5 55.228 738.06 58.684 735.18 61.564C732.492 64.252 729.132 65.596 725.1 65.596C721.26 65.596 717.9 64.252 715.02 61.564C712.332 58.684 710.988 55.228 710.988 51.196C710.988 47.356 712.332 44.092 715.02 41.404C717.9 38.524 721.26 37.084 725.1 37.084ZM776.875 94.972H798.763V120.028C810.667 101.212 826.987 91.804 847.723 91.804C862.123 91.804 873.547 95.452 881.995 102.748C890.443 109.852 894.667 119.452 894.667 131.548V243.004H871.339V141.052C871.339 132.22 868.555 125.212 862.987 120.028C857.611 114.844 850.219 112.252 840.811 112.252C828.523 112.252 818.731 116.764 811.435 125.788C804.139 134.812 800.491 146.812 800.491 161.788V243.004H776.875V94.972ZM1030.57 94.972H1052.46V218.812C1052.46 250.876 1047.28 273.148 1036.91 285.628C1026.54 298.3 1009.55 304.636 985.934 304.636C967.502 304.636 953.102 300.22 942.734 291.388C933.518 283.516 928.334 273.052 927.182 259.996H951.374C952.526 267.676 955.406 273.34 960.014 276.988C966.734 282.172 975.758 284.764 987.086 284.764C1002.45 284.764 1013.39 280.156 1019.92 270.94C1025.49 263.068 1028.27 249.628 1028.27 230.62V221.116C1015.98 237.82 1001.2 246.172 983.918 246.172C967.022 246.172 952.718 239.836 941.006 227.164C928.526 213.532 922.286 194.908 922.286 171.292C922.286 145.948 928.814 125.788 941.87 110.812C953.39 98.14 967.886 91.804 985.358 91.804C1004.17 91.804 1019.25 100.252 1030.57 117.148V94.972ZM987.95 113.404C975.278 113.404 965.198 118.492 957.71 128.668C950.414 138.652 946.766 152.38 946.766 169.852C946.766 188.092 950.99 202.012 959.438 211.612C966.542 220.06 976.142 224.284 988.238 224.284C1000.91 224.284 1010.7 219.484 1017.61 209.884C1024.72 200.284 1028.27 186.94 1028.27 169.852C1028.27 151.036 1024.24 136.636 1016.17 126.652C1009.07 117.82 999.662 113.404 987.95 113.404Z" fill="white" fill-opacity="0.6"/>
</g>
<defs>
<clipPath id="clip0">
<rect width="1179" height="384" fill="white"/>
</clipPath>
</defs>
</svg>
